<svg width="1448" height="1448" viewBox="0 0 1448 1448" fill="none" xmlns="http://www.w3.org/2000/svg">
<path d="M938.11 687.52C923.88 676.1 907.46 669.1 889.94 664.7C876.12 661.23 862.07 658.97 847.63 658.85C837.09 659.92 826.42 660.31 816.04 662.24C804.02 664.48 792.23 667.93 781.02 673.19C767.54 679.51 755.16 687.25 745.8 699.03C734.84 712.83 733.08 727.35 742.9 742.42C749.6 752.7 759.02 760.15 769.5 766.31C778.57 771.64 788.07 776.05 798.29 778.57C808.1 780.99 817.95 783.9 827.94 784.76C840.42 785.84 853.09 785.53 865.63 784.96C878.08 784.39 890.27 781.48 901.95 777.19C910.17 774.17 918.2 770.4 925.87 766.15C938.24 759.3 948.75 750.27 955.34 737.36C959.39 729.43 960.17 721.1 957.3 712.77C953.7 702.34 946.59 694.32 938.1 687.52H938.11Z" fill="#1D1D1B"/>
<path d="M293.72 659.71C290.05 659.62 286.35 660.56 282.66 661C274.24 662 266.45 665.04 259.42 669.5C244.72 678.83 234.81 691.81 230.54 709C227.17 722.57 228.13 735.82 233.84 748.32C245.5 773.82 266.16 786.13 293.72 787.52C306.25 787.37 315.93 784.85 327.52 778.06C345.27 767.67 355.5 751.9 358.47 731.81C360.04 721.24 358.47 710.71 354.42 700.52C344.25 674.94 319.77 660.33 293.72 659.71Z" fill="#1D1D1B"/>
<path d="M724 0C324.15 0 0 324.15 0 724C0 1123.85 324.15 1448 724 1448C1123.85 1448 1448 1123.85 1448 724C1448 324.15 1123.85 0 724 0ZM403.72 779.03C391.08 802.95 372.54 820.63 348.21 832.36C335.96 838.27 323.16 841.89 309.63 843.78C297.08 845.54 284.63 845.24 272.41 843.02C262.79 841.27 253.39 837.8 244.19 834.32C229.7 828.83 217.39 819.85 206.32 809.05C195.34 798.34 186.83 785.96 180.42 772.05C170.6 750.76 167.98 728.34 171.46 705.44C175.59 678.25 188.28 655.18 208.23 636.22C218.26 626.69 229.65 619.02 242.3 613.49C255.37 607.77 268.94 603.48 283.43 603.33C292.6 603.23 301.84 602.73 310.92 603.69C321.69 604.83 332.03 608.1 342.16 612.31C355.02 617.65 366.5 624.93 376.86 634.05C387.8 643.68 397.16 654.71 403.36 667.97C407.51 676.86 411.53 685.99 414.04 695.43C416.46 704.56 416.87 714.23 418.16 723.66C417.87 723.7 417.57 723.75 417.28 723.79C417.68 743.4 412.87 761.71 403.72 779.01V779.03ZM649.69 833.91C644.14 836.9 638.13 837.77 631.87 837.77C570.2 837.72 508.53 837.7 446.86 837.79C438.16 837.8 434.59 832.01 436.74 825.98C437.55 823.72 439.41 821.8 440.91 819.82C455.75 800.24 470.61 780.67 485.47 761.11C497.47 745.31 509.46 729.51 521.49 713.74C533.07 698.55 544.68 683.39 556.25 668.19C556.89 667.35 557.29 666.31 558.03 664.95C556.69 664.89 555.56 664.79 554.44 664.79C530.33 664.79 506.22 664.87 482.11 664.79C470.19 664.75 460.93 659.72 455.12 649.12C446.32 633.08 456.31 613.96 472.1 609.25C474.95 608.4 478.03 607.94 481.01 607.94C538.68 607.87 596.35 607.9 654.02 607.91C660.23 607.91 662.99 609.55 664.03 614.97C664.45 617.17 663.86 620.23 662.53 621.99C638.49 653.9 614.23 685.66 590.08 717.49C574.96 737.41 559.93 757.4 544.85 777.35C544.23 778.17 543.51 778.92 542.27 780.35C546.23 780.35 549.24 780.35 552.25 780.35C579.39 780.35 606.53 780.26 633.67 780.39C647.01 780.46 657.47 786.03 662.57 798.72C667.7 811.49 663.49 826.49 649.69 833.93V833.91ZM1016 725.51C1015.69 736.53 1013.18 747.17 1008.75 757.4C996.8 785.02 975.94 804.09 950.04 817.89C938.42 824.08 926.03 829.11 913.54 833.33C903.82 836.62 893.48 838.46 883.26 839.85C870.6 841.58 857.8 842.96 845.05 843.04C834.25 843.11 823.4 841.4 812.64 839.97C804.77 838.92 796.89 837.5 789.22 835.47C764.09 828.79 740.85 818.12 720.64 801.47C706.83 790.09 695.39 776.78 687.9 760.35C682.44 748.36 679.2 735.87 679.4 727.99C679.57 701.28 686.82 682.47 699.61 665.7C712.46 648.86 728.69 636.08 747.42 626.3C758.22 620.67 769.37 616.13 781.02 612.5C798.19 607.16 815.57 603.55 833.56 603.34C846.36 603.19 859.25 602.61 871.96 603.79C883.64 604.88 895.25 607.57 906.66 610.47C916.17 612.89 925.59 616.07 934.63 619.89C958.33 629.91 979.1 644.17 995.07 664.67C1008.97 682.52 1016.64 702.69 1016 725.51ZM1273.66 836.38C1269.8 838.64 1266.46 837.62 1263.31 835.12C1242.03 818.26 1220.78 801.36 1199.51 784.48C1171.51 762.26 1143.5 740.06 1115.49 717.86C1115.22 717.64 1114.83 717.57 1113.82 717.14C1113.82 719.2 1113.82 720.75 1113.82 722.29C1113.82 750.76 1113.82 779.24 1113.8 807.71C1113.8 816.72 1110.9 824.48 1103.97 830.58C1088.76 843.99 1064.61 837.57 1058.74 818.48C1057.62 814.86 1056.81 810.97 1056.8 807.2C1056.68 744.2 1056.75 681.19 1056.66 618.19C1056.66 613.86 1057.87 610.64 1061.81 608.7C1065.79 606.74 1069.07 608.39 1072.14 610.84C1088.25 623.67 1104.34 636.53 1120.47 649.34C1136.86 662.35 1153.3 675.29 1169.7 688.29C1185.7 700.97 1201.67 713.68 1217.66 726.35C1218.48 727 1219.44 727.48 1220.97 728.43C1220.97 726.37 1220.97 724.87 1220.97 723.37C1220.98 695.5 1220.85 667.63 1221.14 639.77C1221.19 634.59 1222.22 629.13 1224.1 624.31C1228.19 613.8 1238.91 607.56 1250.63 607.88C1261.78 608.18 1272.13 615.4 1275.85 625.86C1277 629.09 1277.87 632.62 1277.88 636.02C1278 699.99 1277.94 763.97 1278.01 827.94C1278.01 831.67 1276.99 834.43 1273.67 836.38H1273.66Z" fill="#1D1D1B"/>
</svg>
