<svg width="1458" height="1458" viewBox="0 0 1458 1458" fill="none" xmlns="http://www.w3.org/2000/svg">
<path d="M953.111 695.79C979.721 695.74 1006.37 696.41 1032.95 695.43C1060.22 694.43 1079.36 672.39 1079.39 643.96C1079.42 615.65 1060.05 593.4 1032.83 592.62C1001.59 591.73 970.301 592.41 937.971 592.41V695.79C943.801 695.79 948.451 695.79 953.111 695.79Z" fill="#1D1D1B"/>
<path d="M729 0C326.38 0 0 326.38 0 729C0 1131.62 326.38 1458 729 1458C1131.62 1458 1458 1131.62 1458 729C1458 326.38 1131.62 0 729 0ZM838.91 545.74C804.18 669.15 769.32 792.51 734.81 915.98C732.02 925.97 728.03 930.72 716.78 929.98C700.51 928.92 684.08 929.08 667.78 929.93C657.11 930.49 652.52 927.15 649.48 916.41C624.98 829.85 599.72 743.5 574.68 657.09C573.52 653.08 572.27 649.1 569.98 641.52C567.39 649.68 565.69 654.69 564.21 659.76C539.31 745.24 514.22 830.66 489.83 916.28C486.83 926.8 482.48 930.58 471.63 930C454.87 929.11 437.99 929.18 421.22 930C411.39 930.49 407.41 926.91 404.81 917.62C373.83 806.74 342.45 695.97 311.2 585.16C306.17 567.33 301.26 549.47 295.72 529.55C318.6 529.55 339.51 529.04 360.34 530.1C363.48 530.26 367.71 537.35 368.96 541.92C391.31 623.75 413.28 705.69 435.34 787.6C439.44 802.84 443.59 818.06 450.42 833.75C456.32 813.67 462.27 793.61 468.12 773.52C490.53 696.54 513.04 619.6 535.1 542.52C537.8 533.07 541.45 528.3 552.14 529.24C563.72 530.27 575.51 530.08 587.13 529.3C597.22 528.62 601.6 532.01 604.47 542.16C630.81 634.98 657.81 727.61 684.63 820.29C685.91 824.72 687.33 829.1 688.68 833.51C689.61 833.58 690.55 833.64 691.49 833.71C705.76 780.73 720.03 727.75 734.3 674.78C746.31 630.22 758.64 585.74 770.06 541.02C772.42 531.79 776.43 529.1 785.37 529.37C803.91 529.92 822.48 529.54 842.65 529.54C841.16 536.11 840.27 540.99 838.93 545.74H838.91ZM1157.87 845.12C1145.05 892.82 1111.25 923.38 1063.64 927.11C1000.15 932.08 935.98 928.34 870.77 928.34V527.94C934.58 529.66 998.19 525.58 1059.91 534.54C1131.09 544.88 1168.03 628.63 1134.44 689.83C1127.85 701.84 1117.63 711.86 1109.13 722.75C1163.9 757.63 1168.08 807.15 1157.87 845.14V845.12Z" fill="#1D1D1B"/>
<path d="M1055.15 758.97C1016.33 756.17 977.16 758.22 937.48 758.22V866.61C974.89 866.61 1010.8 867.41 1046.65 866.34C1072.81 865.56 1093.19 842.86 1095.14 815.33C1097 789.1 1079.68 760.74 1055.15 758.97Z" fill="#1D1D1B"/>
</svg>
