<svg width="626" height="325" viewBox="0 0 626 325" fill="none" xmlns="http://www.w3.org/2000/svg">
<g clip-path="url(#clip0_103_43)">
<path d="M0 224.083V0H33.3011V101.02H34.2248L59.7266 0H92.1041L66.6536 102.304L92.7198 224.134H58.4438L34.2761 110.474H33.3525V224.083H0Z" fill="#1D1D1B"/>
<path d="M93.7461 224.083V0H167.942V29.2885H127.099V86.8893H166.403V116.178H127.099V194.846H168.61V224.134H93.7974L93.7461 224.083Z" fill="#1D1D1B"/>
<path d="M177.076 224.083V0H221.101C247.835 0 264.152 9.45454 264.152 38.3834V70.1897C264.152 86.8893 259.431 100.711 231.158 103.846V104.462C245.936 106.364 261.638 111.399 262.92 131.85C264.819 161.755 262.92 193.202 268.257 224.083H234.956C229.311 198.289 230.851 164.581 230.851 138.478C230.851 124.964 225.822 119.621 210.429 120.237V224.083H177.127H177.076ZM210.377 92.8498H216.637C228.285 92.8498 230.799 86.581 230.799 78.3597V37.7668C230.799 29.2885 225.771 26.7708 218.228 26.7708H210.377V92.8498Z" fill="#1D1D1B"/>
<path d="M297.145 0H347.122L372.573 224.083H271.694L297.145 0ZM333.986 194.538L322.595 40.9012H320.389L306.843 195.565L333.986 194.538Z" fill="#1D1D1B"/>
<path d="M626 0H594.905L576.381 96.9605H575.458C575.458 96.9605 566.016 32.1146 559.756 0H454.927V194.846H415.52V0H382.219V224.083H559.808L575.509 127.123H576.433L594.956 224.083H626.051L599.061 112.016L626 0ZM531.227 194.846H488.126V116.178H527.43V86.8893H488.126V29.2885H531.227L548.571 112.067L531.227 194.846Z" fill="#1D1D1B"/>
<path d="M213.096 290.368C212.275 292.731 211.403 294.992 210.479 297.253C209.607 299.514 208.683 301.672 207.811 303.727C206.939 305.783 206.118 307.581 205.348 309.071H205.194C205.194 308.301 205.246 307.478 205.297 306.605C205.297 305.731 205.297 304.806 205.297 303.933C205.297 303.059 205.297 302.135 205.297 301.261C205.297 300.387 205.297 299.565 205.194 298.897L204.373 283.739H200.679L202.577 310.613L202.731 313.079V313.696C202.116 315.186 201.551 316.368 200.935 317.344C200.371 318.32 199.755 319.091 199.037 319.708C198.37 320.324 197.6 320.787 196.779 321.095C195.958 321.403 195.035 321.66 193.957 321.814V325C195.548 324.897 196.83 324.64 197.959 324.178C199.088 323.716 200.114 323.099 200.987 322.328C201.859 321.557 202.629 320.633 203.347 319.605C204.065 318.526 204.732 317.344 205.348 316.059C205.861 315.032 206.323 314.055 206.785 313.079C207.195 312.257 207.606 311.435 207.965 310.613C208.324 309.893 208.683 309.174 208.991 308.455C210.171 305.937 211.3 303.368 212.429 300.747C213.558 298.127 214.687 295.403 215.764 292.629C216.842 289.854 217.971 286.874 219.151 283.739H215.251C214.533 285.846 213.763 288.055 212.942 290.419L213.096 290.368Z" fill="#1D1D1B"/>
<path d="M246.757 284.253C246.192 283.79 245.525 283.534 244.858 283.379C244.14 283.225 243.524 283.174 242.908 283.174C241.369 283.174 240.138 283.431 239.214 283.945C238.342 284.458 237.469 285.178 236.597 286.103H236.494L236.956 283.534H233.262L228.028 310.561L227.566 313.028L225.309 324.692H229.003L231.261 313.028H235.263C235.879 313.233 236.597 313.336 237.367 313.336C238.29 313.336 239.163 313.233 239.932 313.028C240.599 312.873 241.215 312.617 241.78 312.308C242.498 311.846 243.114 311.229 243.678 310.561C243.986 310.201 244.294 309.79 244.55 309.328C245.269 308.043 245.833 306.502 246.295 304.703C246.757 302.905 247.167 300.85 247.68 298.64C247.783 298.024 247.937 297.253 248.091 296.379C248.245 295.506 248.347 294.632 248.501 293.707C248.604 292.834 248.707 291.96 248.758 291.19C248.809 290.419 248.861 289.751 248.861 289.237C248.861 287.952 248.655 286.925 248.245 286.154C247.834 285.383 247.373 284.767 246.808 284.304L246.757 284.253ZM244.704 293.656C244.55 294.941 244.294 296.379 243.986 297.972C243.627 299.822 243.268 301.518 242.908 303.008C242.549 304.498 242.139 305.731 241.626 306.81C241.113 307.889 240.548 308.66 239.881 309.225C239.214 309.79 238.444 310.047 237.469 310.047C235.674 310.047 234.391 309.482 233.621 308.3C232.851 307.118 232.646 305.526 233.057 303.47L235.314 292.166C235.417 291.549 235.622 290.881 235.93 290.213C236.187 289.545 236.597 288.98 237.059 288.466C237.521 287.952 238.085 287.541 238.752 287.233C239.419 286.925 240.189 286.771 241.061 286.771C242.241 286.771 243.216 287.079 243.935 287.696C244.653 288.312 245.012 289.237 245.012 290.522C245.012 291.344 244.91 292.371 244.756 293.656H244.704Z" fill="#1D1D1B"/>
<path d="M266.922 283.277H266.05C264.51 283.277 263.176 283.637 261.945 284.305C260.713 284.973 259.687 286.154 258.763 287.85H258.661L259.43 283.739H255.787L250.554 310.613L250.092 313.079H253.786L254.248 310.562L257.327 294.684C257.789 292.423 258.609 290.676 259.841 289.392C261.072 288.107 262.612 287.49 264.459 287.49C264.716 287.49 265.023 287.49 265.28 287.49C265.537 287.49 265.793 287.49 266.05 287.593L266.922 283.226V283.277Z" fill="#1D1D1B"/>
<path d="M282.931 285.281C282.315 284.664 281.597 284.202 280.673 283.842C279.75 283.482 278.672 283.328 277.441 283.328C273.849 283.328 271.283 284.664 269.693 287.387C268.923 288.672 268.358 290.213 267.897 292.115C267.435 294.016 266.973 296.174 266.46 298.692C266.203 300.131 265.947 301.621 265.69 303.213C265.434 304.806 265.331 306.091 265.331 307.119C265.331 307.838 265.434 308.557 265.69 309.328C265.844 309.791 266.152 310.202 266.46 310.613C266.614 310.87 266.716 311.178 266.922 311.383C267.486 312 268.204 312.514 269.077 312.925C269.231 312.976 269.436 313.028 269.641 313.079C270.411 313.336 271.283 313.49 272.309 313.49C273.541 313.49 274.618 313.336 275.542 313.079C275.953 312.976 276.414 312.874 276.722 312.719C277.8 312.257 278.672 311.538 279.39 310.561C279.493 310.459 279.596 310.407 279.647 310.304C280.468 309.225 281.084 307.787 281.648 305.988C282.161 304.241 282.674 302.083 283.187 299.565C283.547 297.767 283.855 295.968 284.162 294.221C284.47 292.474 284.624 290.881 284.624 289.597C284.624 288.826 284.47 288.107 284.214 287.336C283.957 286.565 283.495 285.897 282.88 285.281H282.931ZM280.827 294.067C280.571 295.557 280.314 297.047 280.006 298.589C279.698 300.131 279.339 301.621 278.98 303.059C278.621 304.447 278.313 305.577 278.056 306.348C277.646 307.581 277.03 308.506 276.106 309.174C275.234 309.842 274.208 310.15 273.028 310.15C271.591 310.15 270.565 309.791 269.846 309.071C269.179 308.352 268.82 307.427 268.82 306.399C268.82 305.526 268.923 304.498 269.077 303.316C269.231 302.134 269.436 300.85 269.744 299.411C270.206 297.047 270.719 294.889 271.181 293.04C271.694 291.19 272.104 289.957 272.412 289.289C272.976 288.261 273.644 287.542 274.516 287.131C275.388 286.719 276.26 286.514 277.184 286.514C278.313 286.514 279.288 286.874 280.057 287.542C280.827 288.261 281.186 289.186 281.186 290.368C281.186 291.344 281.084 292.526 280.827 294.016V294.067Z" fill="#1D1D1B"/>
<path d="M296.067 283.739L297.555 275.724H293.912C293.655 277.06 293.45 278.396 293.142 279.732C292.886 281.068 292.629 282.403 292.321 283.739H289.088L288.575 286.617H291.808L287.908 306.759C287.806 307.016 287.806 307.273 287.806 307.53V308.301C287.806 309.123 288.062 309.894 288.421 310.562C288.678 311.024 288.883 311.486 289.294 311.846C289.858 312.411 290.679 312.771 291.705 313.028C292.526 313.234 293.45 313.336 294.579 313.336V313.028L295.092 310.562L295.195 310.048C293.809 310.048 292.885 309.791 292.372 309.226C291.859 308.712 291.654 308.044 291.654 307.222C291.654 306.759 291.705 306.245 291.808 305.68L295.502 286.566H299.607L300.223 283.688H296.118L296.067 283.739Z" fill="#1D1D1B"/>
<path d="M317.412 285.281C316.797 284.664 316.078 284.202 315.155 283.842C314.231 283.482 313.153 283.328 311.922 283.328C308.33 283.328 305.765 284.664 304.174 287.387C303.404 288.672 302.84 290.213 302.378 292.115C301.916 294.016 301.454 296.174 300.941 298.692C300.685 300.131 300.428 301.621 300.172 303.213C299.915 304.806 299.812 306.091 299.812 307.119C299.812 307.838 299.915 308.557 300.172 309.328C300.326 309.791 300.633 310.202 300.941 310.613C301.095 310.87 301.198 311.178 301.403 311.383C301.968 312 302.686 312.514 303.558 312.925C303.712 312.976 303.917 313.028 304.123 313.079C304.892 313.336 305.765 313.49 306.791 313.49C308.022 313.49 309.1 313.336 310.023 313.079C310.434 312.976 310.896 312.874 311.204 312.719C312.281 312.257 313.153 311.538 313.872 310.561C313.974 310.459 314.077 310.407 314.128 310.304C314.949 309.225 315.565 307.787 316.13 305.988C316.643 304.241 317.156 302.083 317.669 299.565C318.028 297.767 318.336 295.968 318.644 294.221C318.952 292.474 319.106 290.881 319.106 289.597C319.106 288.826 318.952 288.107 318.695 287.336C318.439 286.565 317.977 285.897 317.361 285.281H317.412ZM315.309 294.067C315.052 295.557 314.795 297.047 314.488 298.589C314.18 300.131 313.821 301.621 313.461 303.059C313.102 304.447 312.794 305.577 312.538 306.348C312.127 307.581 311.512 308.506 310.588 309.174C309.716 309.842 308.689 310.15 307.509 310.15C306.072 310.15 305.046 309.791 304.328 309.071C303.661 308.352 303.302 307.427 303.302 306.399C303.302 305.526 303.404 304.498 303.558 303.316C303.712 302.134 303.917 300.85 304.225 299.411C304.687 297.047 305.2 294.889 305.662 293.04C306.175 291.19 306.586 289.957 306.893 289.289C307.458 288.261 308.125 287.542 308.997 287.131C309.87 286.719 310.742 286.514 311.665 286.514C312.794 286.514 313.769 286.874 314.539 287.542C315.309 288.261 315.668 289.186 315.668 290.368C315.668 291.344 315.565 292.526 315.309 294.016V294.067Z" fill="#1D1D1B"/>
<path d="M354.869 283.277C352.817 283.277 351.175 283.739 349.892 284.613C348.609 285.486 347.532 286.668 346.711 288.107C345.89 289.546 345.223 291.19 344.761 293.04C344.299 294.89 343.889 296.791 343.529 298.743C343.324 299.874 343.17 301.056 343.016 302.289C342.862 303.471 342.76 304.652 342.76 305.732C342.76 306.759 342.862 307.735 343.068 308.712C343.222 309.431 343.581 309.996 343.889 310.613C343.991 310.818 344.043 311.024 344.145 311.178C344.658 311.898 345.377 312.463 346.249 312.874C346.454 312.977 346.711 313.028 346.916 313.079C347.686 313.336 348.609 313.49 349.687 313.49C350.764 313.49 351.791 313.285 352.714 313.079C354.048 312.771 355.228 312.257 356.101 311.435C356.357 311.178 356.563 310.87 356.768 310.562C357.897 309.277 358.769 307.787 359.231 305.886L355.434 305.269C355.177 306.708 354.561 307.838 353.638 308.712C352.714 309.585 351.534 310.048 350.097 310.048C348.558 310.048 347.532 309.585 347.019 308.609C346.505 307.633 346.249 306.554 346.249 305.32C346.249 304.498 346.3 303.676 346.454 302.751C346.608 301.826 346.762 301.004 346.967 300.182C348.301 300.439 349.482 300.542 350.508 300.542C352.047 300.542 353.535 300.336 354.972 299.874C356.409 299.411 357.64 298.743 358.718 297.818C359.795 296.894 360.667 295.763 361.283 294.376C361.899 292.988 362.258 291.396 362.258 289.494C362.258 287.593 361.642 286 360.36 284.921C359.077 283.842 357.332 283.226 354.972 283.226L354.869 283.277ZM357.845 293.502C357.384 294.427 356.768 295.147 356.049 295.763C355.331 296.328 354.51 296.739 353.586 296.996C352.663 297.253 351.739 297.407 350.764 297.407C350.303 297.407 349.738 297.407 349.122 297.305C348.507 297.202 347.942 297.151 347.48 297.048C348.25 293.348 349.174 290.676 350.2 289.032C351.226 287.388 352.663 286.566 354.407 286.566C355.69 286.566 356.665 286.925 357.384 287.593C358.102 288.261 358.461 289.135 358.461 290.162C358.461 291.498 358.256 292.577 357.794 293.502H357.845Z" fill="#1D1D1B"/>
<path d="M378.217 287.541C378.473 287.541 378.73 287.541 378.986 287.644L379.858 283.276H378.986C377.447 283.276 376.113 283.636 374.881 284.304C373.65 284.972 372.624 286.154 371.7 287.849H371.597L372.367 283.739H368.724L363.49 310.612L363.028 313.079H366.723L367.185 310.561L370.263 294.683C370.725 292.423 371.546 290.676 372.778 289.391C374.009 288.106 375.548 287.49 377.396 287.49C377.652 287.49 377.96 287.49 378.217 287.49V287.541Z" fill="#1D1D1B"/>
<path d="M394.636 284.202C394.636 284.202 394.534 284.715 394.482 284.972C394.431 285.229 394.38 285.486 394.328 285.743C394.328 285.949 394.277 286.154 394.277 286.257H394.174C393.713 285.383 393.046 284.664 392.071 284.15C391.096 283.636 389.967 283.328 388.633 283.328C387.042 283.328 385.708 283.636 384.631 284.304C383.553 284.921 382.629 285.897 381.86 287.131C381.09 288.364 380.474 289.854 379.961 291.601C379.448 293.348 378.986 295.352 378.576 297.613C378.422 298.435 378.268 299.36 378.114 300.285C377.96 301.21 377.806 302.134 377.703 303.008C377.601 303.881 377.498 304.755 377.396 305.526C377.293 306.348 377.293 307.016 377.293 307.581C377.293 308.712 377.447 309.688 377.806 310.459C377.806 310.51 377.857 310.561 377.909 310.613C378.217 311.281 378.627 311.846 379.14 312.257C379.653 312.668 380.218 312.925 380.833 313.079C380.885 313.079 380.936 313.182 381.039 313.182C381.757 313.336 382.424 313.439 383.091 313.439C384.117 313.439 384.938 313.285 385.657 313.079C386.067 312.976 386.529 312.822 386.837 312.617C387.658 312.154 388.428 311.435 389.197 310.561H389.556C389.556 310.818 389.454 311.178 389.351 311.692C389.249 312.308 389.146 312.771 389.043 313.079H392.738C392.84 312.463 393.046 311.589 393.2 310.561C393.251 310.202 393.302 309.945 393.405 309.534C393.713 307.992 394.021 306.245 394.38 304.344C394.739 302.443 395.098 300.439 395.509 298.383C395.919 296.277 396.278 294.273 396.689 292.372C397.048 290.47 397.407 288.723 397.715 287.182C398.023 285.64 398.228 284.459 398.382 283.636H394.739C394.739 283.636 394.636 283.945 394.636 284.15V284.202ZM388.992 307.838C388.479 308.455 387.914 308.917 387.196 309.277C386.478 309.636 385.759 309.842 384.887 309.842C383.707 309.842 382.732 309.534 382.065 308.917C381.347 308.3 381.039 307.376 381.039 306.194C381.039 305.269 381.141 304.138 381.347 302.751C381.552 301.364 381.808 299.874 382.116 298.178C382.475 296.328 382.835 294.632 383.296 293.142C383.707 291.652 384.015 290.625 384.22 290.111C384.733 288.878 385.4 288.004 386.272 287.542C387.093 287.079 388.068 286.822 389.146 286.822C390.839 286.822 392.019 287.439 392.584 288.621C393.148 289.802 393.302 291.293 392.994 292.988L390.839 303.881C390.737 304.498 390.531 305.166 390.223 305.885C389.916 306.605 389.505 307.221 389.043 307.838H388.992Z" fill="#1D1D1B"/>
<path d="M423.884 272.691H420.138L419.368 276.494H423.114L423.884 272.691Z" fill="#1D1D1B"/>
<path d="M417.983 283.688L412.8 310.561L408.49 310.458C407.104 310.458 406.181 310.202 405.668 309.636C405.155 309.122 404.949 308.043 404.949 307.221C404.949 306.759 405.001 306.245 405.103 305.68L408.798 286.565H412.903L413.518 283.688H409.413L410.902 275.672H407.258C407.002 277.008 406.797 278.344 406.489 279.68C406.232 281.016 405.976 282.352 405.668 283.688H402.435L401.922 286.565H405.155L401.255 306.707C401.152 306.964 401.152 307.221 401.152 307.478V308.249C401.152 309.071 401.409 309.842 401.768 310.51C402.025 310.972 402.281 311.126 402.64 311.486C403.205 312.051 404.026 312.411 405.052 312.668C405.873 312.873 406.797 312.976 407.925 312.976H416.033L416.494 310.458L421.728 283.585H417.983V283.688Z" fill="#1D1D1B"/>
<path d="M438.712 310.561L442.304 291.961C442.407 291.498 442.458 290.984 442.509 290.522C442.561 290.059 442.612 289.597 442.612 289.134C442.612 288.312 442.509 287.593 442.356 286.874C442.202 286.154 441.842 285.538 441.432 285.024C441.021 284.51 440.406 284.047 439.687 283.791C438.969 283.482 438.045 283.328 436.968 283.328C435.788 283.328 434.607 283.585 433.427 284.15C432.247 284.715 431.221 285.64 430.195 286.976H430.041C430.143 286.411 430.246 285.846 430.349 285.332C430.503 284.818 430.605 284.253 430.657 283.688H427.013C426.09 288.621 425.166 293.502 424.191 298.383C423.422 302.391 422.601 306.451 421.831 310.51C421.677 311.332 421.523 312.154 421.369 312.976H424.961L425.423 310.459L428.45 294.838C428.604 293.913 428.861 292.988 429.168 292.063C429.476 291.138 429.887 290.265 430.4 289.494C430.913 288.723 431.529 288.107 432.298 287.593C433.068 287.079 433.992 286.822 435.069 286.822C436.506 286.822 437.481 287.182 437.994 287.901C438.507 288.621 438.764 289.494 438.764 290.47C438.764 290.779 438.764 291.138 438.712 291.447C438.661 291.755 438.61 292.115 438.558 292.474L435.069 310.407L434.607 312.874H438.302L438.764 310.356L438.712 310.561Z" fill="#1D1D1B"/>
<path d="M195.137 303.059C195.394 301.929 195.599 300.85 195.804 299.771C196.266 297.613 196.625 295.609 196.882 293.708C197.138 291.806 197.292 290.265 197.292 289.032C197.292 287.285 196.83 285.897 195.855 284.87C194.88 283.842 193.444 283.328 191.443 283.328C190.262 283.328 189.134 283.636 187.953 284.202C186.773 284.767 185.747 285.64 184.875 286.822H184.772C185.337 283.945 185.901 281.119 186.465 278.241C187.03 275.415 187.594 272.538 188.159 269.66H184.567L176.665 310.51L176.203 312.976H179.795L180.308 310.459H180.411C180.872 311.383 181.488 312.051 182.309 312.565C182.617 312.719 182.976 312.822 183.335 312.925C184.054 313.131 184.875 313.285 185.901 313.285C186.517 313.285 187.235 313.182 188.056 313.028C188.159 313.028 188.261 312.925 188.364 312.925C189.031 312.771 189.749 312.514 190.416 312.051C191.032 311.64 191.597 311.075 192.161 310.407C192.315 310.253 192.469 310.099 192.623 309.893C193.341 308.968 193.906 307.735 194.316 306.194C194.624 305.115 194.932 304.036 195.188 302.905L195.137 303.059ZM193.136 294.016C192.879 295.506 192.623 297.099 192.315 298.795C192.007 300.644 191.648 302.186 191.289 303.522C190.93 304.858 190.57 305.937 190.16 306.708C189.595 307.838 188.928 308.66 188.21 309.174C187.44 309.636 186.465 309.893 185.234 309.893C184.413 309.893 183.746 309.739 183.181 309.431C182.617 309.123 182.207 308.712 181.847 308.198C181.54 307.684 181.334 307.119 181.232 306.451C181.129 305.783 181.18 305.115 181.283 304.447L183.387 293.862C183.541 293.091 183.797 292.32 184.105 291.498C184.413 290.676 184.823 289.905 185.337 289.237C185.85 288.569 186.465 288.004 187.184 287.542C187.902 287.079 188.774 286.874 189.698 286.874C190.981 286.874 191.904 287.182 192.469 287.798C193.033 288.415 193.392 289.289 193.444 290.419C193.444 291.344 193.341 292.526 193.085 294.067L193.136 294.016Z" fill="#1D1D1B"/>
<path d="M337.886 310.562L333.832 294.838L342.76 283.688H338.553L326.136 298.949H326.084L331.831 269.712H328.188L320.286 310.562L319.824 313.028V313.079H323.416V313.028L323.929 310.562L324.853 305.732L331.061 297.87L334.14 310.562L334.756 313.028V313.079H338.553V313.028L337.886 310.562Z" fill="#1D1D1B"/>
<path d="M151.369 296.894H0V299.411H151.369V296.894Z" fill="#1D1D1B"/>
<path d="M626 296.894H469.654V299.411H626V296.894Z" fill="#1D1D1B"/>
</g>
<defs>
<clipPath id="clip0_103_43">
<rect width="626" height="325" fill="white"/>
</clipPath>
</defs>
</svg>
